<svg id="visual" viewBox="0 0 900 600" width="900" height="600" xmlns="http://www.w3.org/2000/svg" xmlns:xlink="http://www.w3.org/1999/xlink" version="1.1"><rect x="0" y="0" width="900" height="600" fill="#eb930f"></rect><path d="M0 352L129 396L257 409L386 439L514 414L643 445L771 411L900 361L900 601L771 601L643 601L514 601L386 601L257 601L129 601L0 601Z" fill="#f5730a"></path><path d="M0 463L129 415L257 460L386 438L514 455L643 406L771 442L900 414L900 601L771 601L643 601L514 601L386 601L257 601L129 601L0 601Z" fill="#da5b09"></path><path d="M0 455L129 455L257 442L386 489L514 510L643 453L771 486L900 463L900 601L771 601L643 601L514 601L386 601L257 601L129 601L0 601Z" fill="#be4407"></path><path d="M0 509L129 526L257 535L386 510L514 514L643 497L771 502L900 541L900 601L771 601L643 601L514 601L386 601L257 601L129 601L0 601Z" fill="#a32d04"></path><path d="M0 556L129 533L257 524L386 526L514 554L643 551L771 562L900 547L900 601L771 601L643 601L514 601L386 601L257 601L129 601L0 601Z" fill="#871400"></path></svg>